# xmcd
#
# Track frame offsets: 
#        150
#        14392
#        30157
#        42067
#        49385
#        61360
#        75827
#        88447
#        101125
#        117567
#        127732
#
# Disc length: 1914 seconds
#
# Revision: 0
# Processed by: cddbd v1.5.2PL0 Copyright (c) Steve Scherf et al.
# Submitted via: ExactAudioCopy v1.0b1
#
DISCID=8507780b
DTITLE=Earl Scruggs - Nashville's Rock
DYEAR=1971
DGENRE=Country
TTITLE0=Honky Tonk Women
TTITLE1=Hey Jude
TTITLE2=Something
TTITLE3=Train Number Forty-Five
TTITLE4=In the Gloryland
TTITLE5=With a Little Help from My Friends
TTITLE6=Nashville Skyline Rag
TTITLE7=Everybody's Talkin
TTITLE8=Love Is Just a Four-Letter Word
TTITLE9=Loraderojosp III Breakdown
TTITLE10=Bridge over Troubled Water
EXTD=
EXTT0=
EXTT1=
EXTT2=
EXTT3=
EXTT4=
EXTT5=
EXTT6=
EXTT7=
EXTT8=
EXTT9=
EXTT10=
PLAYORDER=
